<svg width="36" height="36" viewBox="0 0 36 36" fill="none" xmlns="http://www.w3.org/2000/svg">
<rect width="36" height="36" rx="5" fill="#F3EAF8"/>
<path d="M21.365 18.2797C21.365 20.2597 19.765 21.8597 17.785 21.8597C15.805 21.8597 14.205 20.2597 14.205 18.2797C14.205 16.2997 15.805 14.6997 17.785 14.6997C19.765 14.6997 21.365 16.2997 21.365 18.2797Z" stroke="#945FAF" stroke-width="1.5" stroke-linecap="round" stroke-linejoin="round"/>
<path d="M17.785 26.55C21.315 26.55 24.605 24.47 26.895 20.87C27.795 19.46 27.795 17.09 26.895 15.68C24.605 12.08 21.315 10 17.785 10C14.255 10 10.965 12.08 8.675 15.68C7.775 17.09 7.775 19.46 8.675 20.87C10.965 24.47 14.255 26.55 17.785 26.55Z" stroke="#945FAF" stroke-width="1.5" stroke-linecap="round" stroke-linejoin="round"/>
</svg>
